<svg width="70px" height="78px" viewBox="0 0 70 78" version="1.1" xmlns="http://www.w3.org/2000/svg" xmlns:xlink="http://www.w3.org/1999/xlink">
  <!-- Generator: Sketch 51.3 (57544) - http://www.bohemiancoding.com/sketch -->
  <desc>Created with Sketch.</desc>
  <defs></defs>
  <g id="Page-1" stroke="none" stroke-width="1" fill="none" fill-rule="evenodd">
    <g id="PEKI!" fill="white" fill-rule="nonzero">
      <path d="M12.4064171,37.4763537 L12.4064171,27.7464016 L17.5935829,27.7464016 C22.4777179,27.7464016 26.2566845,26.4900617 28.9304813,23.9773818 C31.6042781,21.4647019 32.9411765,17.945168 32.9411765,13.41878 C32.9411765,9.141878 31.6042781,5.83618918 28.9304813,3.5017135 C26.2566845,1.16723783 22.4777179,0 17.5935829,0 L0,0 L0,37.4763537 L12.4064171,37.4763537 Z M16.9518717,18.3372173 L12.4064171,18.3372173 L12.4064171,9.40918437 L16.9518717,9.40918437 C18.3065949,9.40918437 19.3493757,9.79232355 20.0802139,10.5586018 C20.8110521,11.32488 21.1764706,12.4030158 21.1764706,13.7930089 C21.1764706,15.218643 20.8110521,16.3324195 20.0802139,17.1343386 C19.3493757,17.9362577 18.3065949,18.3372173 16.9518717,18.3372173 Z M68.8770053,37.4763537 L68.8770053,28.0671693 L49.0909091,28.0671693 L49.0909091,23.4160384 L66.631016,23.4160384 L66.631016,14.006854 L49.0909091,14.006854 L49.0909091,9.40918437 L68.3957219,9.40918437 L68.3957219,0 L36.684492,0 L36.684492,37.4763537 L68.8770053,37.4763537 Z M12.4064171,77.5723098 L12.4064171,68.4838931 L15.9358289,64.5277587 L23.8502674,77.5723098 L38.6631016,77.5723098 L24.4385027,55.0651131 L37.8609626,40.0959561 L23.5828877,40.0959561 L12.4064171,53.7820425 L12.4064171,40.0959561 L0,40.0959561 L0,77.5723098 L12.4064171,77.5723098 Z M53.7433155,77.5723098 L53.7433155,40.0959561 L41.3368984,40.0959561 L41.3368984,77.5723098 L53.7433155,77.5723098 Z M67.8609626,63.7793009 L70,49.9328307 L70,40.0959561 L58.5561497,40.0959561 L58.5561497,49.9328307 L60.6951872,63.7793009 L67.8609626,63.7793009 Z M64.0106952,78 C65.6506243,78 66.9786096,77.4921179 67.9946524,76.4763537 C69.0106952,75.4605894 69.5187166,74.1329678 69.5187166,72.4934887 C69.5187166,70.8896504 69.0106952,69.5798492 67.9946524,68.564085 C66.9786096,67.5483208 65.6506243,67.0404387 64.0106952,67.0404387 C62.4064171,67.0404387 61.0962567,67.5483208 60.0802139,68.564085 C59.0641711,69.5798492 58.5561497,70.8896504 58.5561497,72.4934887 C58.5561497,74.1329678 59.0641711,75.4605894 60.0802139,76.4763537 C61.0962567,77.4921179 62.4064171,78 64.0106952,78 Z"></path>
    </g>
  </g>
</svg>
